<?xml version="1.0" encoding="UTF-8"?><svg id="Capa_2" xmlns="http://www.w3.org/2000/svg" viewBox="0 0 201 201"><defs><style>.cls-1{fill:#d60f0f;}</style></defs><g id="Capa_1-2"><path d="M23.66,0H177.34c13.06,0,23.66,10.6,23.66,23.66V97.59c0,57.07-46.34,103.41-103.41,103.41H23.66c-13.06,0-23.66-10.6-23.66-23.66V23.66C0,10.6,10.6,0,23.66,0Z"/><g><path class="cls-1" d="M45.58,27.23h10.97c4.9,0,8.86,3.97,8.86,8.86V164.89c0,4.91-3.98,8.88-8.88,8.88h-10.97c-4.88,0-8.86-3.99-8.86-8.86V36.11c0-4.89,4-8.88,8.88-8.88Z"/><path class="cls-1" d="M88.4,27.23h67.04c4.9,0,8.86,3.97,8.86,8.86v7.79c0,4.89-4,8.88-8.88,8.88h-29.44c-4.9,0-8.86,3.97-8.86,8.86v17.23c0,4.9,3.97,8.86,8.86,8.86h19.2c4.9,0,8.86,3.97,8.86,8.86v7.79c0,4.89-4,8.88-8.88,8.88h-19.18c-4.9,0-8.86,3.97-8.86,8.86v42.76c0,4.91-3.98,8.88-8.88,8.88h-10.97c-4.9,0-8.86-3.97-8.86-8.86V27.23Z"/></g></g></svg>