<?xml version="1.0" encoding="UTF-8"?><svg id="Capa_2" xmlns="http://www.w3.org/2000/svg" viewBox="0 0 686.96 150.73"><defs><style>.cls-1{fill:#d60f0f;}</style></defs><g id="Capa_1-2"><g><path class="cls-1" d="M8.88,2.09h10.97c4.9,0,8.86,3.97,8.86,8.86V139.76c0,4.91-3.98,8.88-8.88,8.88H8.86c-4.88,0-8.86-3.99-8.86-8.86V10.98C0,6.09,4,2.09,8.88,2.09Z"/><path class="cls-1" d="M60.15,2.09h20.27c3.8,0,7.17,2.42,8.39,6.02l9.42,27.81c3.22,9.5,17.26,7.19,17.26-2.84V10.98c0-4.89,4-8.88,8.88-8.88h7.9c4.9,0,8.86,3.97,8.86,8.86V139.76c0,4.89-4,8.88-8.88,8.88h-13.69c-3.8,0-7.17-2.42-8.39-6.02l-15.98-47.23c-3.22-9.5-17.26-7.19-17.26,2.84v41.53c0,4.89-4,8.88-8.88,8.88h-7.88c-4.91,0-8.88-3.98-8.88-8.88V10.96c0-4.88,3.99-8.86,8.86-8.86Z"/><path class="cls-1" d="M163.7,2.09h67.04c4.9,0,8.86,3.97,8.86,8.86v7.79c0,4.89-4,8.88-8.88,8.88h-29.44c-4.9,0-8.86,3.97-8.86,8.86v17.23c0,4.9,3.97,8.86,8.86,8.86h19.2c4.9,0,8.86,3.97,8.86,8.86v7.79c0,4.89-4,8.88-8.88,8.88h-19.18c-4.9,0-8.86,3.97-8.86,8.86v42.76c0,4.91-3.98,8.88-8.88,8.88h-10.97c-4.9,0-8.86-3.97-8.86-8.86V2.09Z"/><path class="cls-1" d="M253.35,108.45V42.29c0-26.59,15.39-42.29,43.49-42.29s43.49,15.7,43.49,42.29V108.45c0,26.59-15.39,42.29-43.49,42.29s-43.49-15.7-43.49-42.29Zm58.26,1.05V42.12c0-10.36-9.35-18.43-19.24-16.1-6.75,1.59-10.31,7.03-10.31,15.22V108.61c0,10.36,9.35,18.43,19.24,16.1,6.75-1.59,10.31-7.03,10.31-15.22Z"/><path class="cls-1" d="M360.64,2.09h67.04c4.9,0,8.86,3.97,8.86,8.86v7.79c0,4.91-3.98,8.88-8.88,8.88h-29.44c-4.9,0-8.86,3.97-8.86,8.86v17.21c0,4.91,3.98,8.88,8.88,8.88h19.18c4.88,0,8.86,3.99,8.86,8.86v7.79c0,4.89-4,8.88-8.88,8.88h-19.18c-4.9,0-8.86,3.97-8.86,8.86v42.76c0,4.89-4,8.88-8.88,8.88h-10.97c-4.9,0-8.86-3.97-8.86-8.86V2.09Z"/><path class="cls-1" d="M461.41,2.09h10.99c4.9,0,8.86,3.97,8.86,8.86V114.22c0,4.89,4,8.88,8.88,8.88h29.44c4.9,0,8.86,3.97,8.86,8.86v7.79c0,4.89-4,8.88-8.88,8.88h-58.16c-4.9,0-8.86-3.97-8.86-8.86V10.96c0-4.88,3.99-8.86,8.86-8.86Z"/><path class="cls-1" d="M553.31,2.09h10.99c4.9,0,8.86,3.97,8.86,8.86V139.76c0,4.89-4,8.88-8.88,8.88h-10.97c-4.9,0-8.86-3.97-8.86-8.86V10.96c0-4.88,3.99-8.86,8.86-8.86Z"/><path class="cls-1" d="M619.97,69.88L590.33,3.33c-.26-.58,.16-1.24,.78-1.24h23.65c3.62,0,6.88,2.2,8.22,5.56l8.14,20.31c2.96,7.37,13.37,7.43,16.41,.09l8.49-20.5c1.37-3.31,4.6-5.47,8.18-5.47h20.44c.62,0,1.04,.66,.78,1.24l-29.64,66.54c-1.02,2.3-1.03,4.92,0,7.22l31.09,70.31c.26,.58-.16,1.24-.78,1.24h-23.45c-3.62,0-6.88-2.2-8.23-5.57l-9.73-24.21c-2.97-7.38-13.4-7.42-16.42-.06l-9.97,24.33c-1.37,3.33-4.61,5.51-8.21,5.51h-20.41c-.62,0-1.04-.66-.78-1.24l31.09-70.31c1.02-2.3,1.01-4.92,0-7.22Z"/></g></g></svg>